# xmcd
#
# Track frame offsets:
#	150
#	17945
#	34638
#	49983
#	63608
#	82658
#	100270
#	118025
#	132730
#	159138
#	176530
#	193173
#	209665
#	228978
#
# Disc length: 3289 seconds
#
# Revision: 0
# Processed by: cddbd v1.4PL0 Copyright (c) Steve Scherf et al.
# Submitted via: dBpowerAMP V4.0
#
DISCID=c10cd70e
DTITLE=André Hazes - Kerstfeest voor ons
DYEAR=1900
DGENRE=X-mas
TTITLE0=Ik steek voor ons de kaarsen aan
TTITLE1=Waarom
TTITLE2=Voor mij geen kerstdiner
TTITLE3=Eenzame kerst
TTITLE4=Kerstfeest voor ons
TTITLE5=Slaap zacht
TTITLE6=Bel me nou
TTITLE7=Dan is 't Kerstfeest zo echt
TTITLE8=Met kerst ben ik alleen
TTITLE9=Dan word ik klein
TTITLE10=Wat kan ik doen om dit te helen
TTITLE11=M'n oude huis
TTITLE12=Ik zal vannavond niet allleen zijn
TTITLE13=Nog mooier dan voorheen
EXTD=
EXTT0=
EXTT1=
EXTT2=
EXTT3=
EXTT4=
EXTT5=
EXTT6=
EXTT7=
EXTT8=
EXTT9=
EXTT10=
EXTT11=
EXTT12=
EXTT13=
PLAYORDER=
